<svg xmlns="http://www.w3.org/2000/svg" width="65" height="65" viewBox="0 0 65 65"><defs><style>.a,.b{fill:#6269ff;}.a{opacity:0.046;}.c{fill:#ff2d62;}.d{fill:#fff;}</style></defs><circle class="a" cx="32.5" cy="32.5" r="32.5"/><g transform="translate(19 16)"><path class="b" d="M26.545,21.563a16.291,16.291,0,0,1-3.9,6.078,20.423,20.423,0,0,1-7.625,4.518,2.332,2.332,0,0,1-.741.131h-.028a2.368,2.368,0,0,1-.455-.045,2.457,2.457,0,0,1-.313-.085,20.422,20.422,0,0,1-7.634-4.515,16.26,16.26,0,0,1-3.9-6.077C.371,17.291.46,12.58.532,8.794V8.736c.015-.313.024-.641.029-1A3.422,3.422,0,0,1,3.785,4.379,13.28,13.28,0,0,0,12.824.57l.021-.02a2.068,2.068,0,0,1,2.808,0l.021.02a13.282,13.282,0,0,0,9.039,3.81,3.422,3.422,0,0,1,3.223,3.353c.005.365.015.693.029,1V8.76C28.038,12.553,28.127,17.274,26.545,21.563Zm0,0" transform="translate(-0.5 0)"/><path class="c" d="M104.932,136.4c0,4.4-3.135,7.985-6.994,8h-.025c-3.87,0-7.019-3.589-7.019-8s3.149-8,7.019-8h.025C101.8,128.414,104.932,132,104.932,136.4Zm0,0" transform="translate(-84.165 -120.254)"/><path class="d" d="M163.278,213.889,159,218.168l-.924.924a1.119,1.119,0,0,1-1.582,0l-1.988-1.989a1.118,1.118,0,0,1,1.581-1.581l1.2,1.2,4.413-4.412a1.118,1.118,0,0,1,1.581,1.581Zm0,0" transform="translate(-145.202 -199.196)"/></g></svg>