<svg xmlns="http://www.w3.org/2000/svg" width="31.105" height="28.25" viewBox="0 0 31.105 28.25"><defs><style>.a{fill:#ff2d62;}.b{fill:#6269ff;}</style></defs><g transform="translate(0 0)"><g transform="translate(0 2.762)"><path class="a" d="M35.585,70.341H30.921a.921.921,0,1,1,0-1.841h4.665a.921.921,0,1,1,0,1.841Z" transform="translate(-28.159 -68.5)"/><path class="a" d="M35.585,190.341H30.921a.921.921,0,0,1,0-1.841h4.665a.921.921,0,0,1,0,1.841Z" transform="translate(-28.159 -181.135)"/><path class="a" d="M5.585,130.341H.921a.921.921,0,1,1,0-1.841H5.585a.921.921,0,1,1,0,1.841Z" transform="translate(0 -124.817)"/></g><g transform="translate(0.982 1.381)"><path class="b" d="M158.926,46.314a1.842,1.842,0,0,0-2.323.23l-5.064,5.064a1.841,1.841,0,1,0,2.6,2.6l4-4,2.86,2.06,3.911-1.818Z" transform="translate(-142.714 -46.005)"/><path class="b" d="M28.508,242.289,16.539,254.258a1.841,1.841,0,0,0,2.6,2.6L29.81,246.195Z" transform="translate(-16 -230.533)"/></g><g transform="translate(11.71)"><path class="b" d="M213.554,118.993h-5.585v-3.636a1.825,1.825,0,0,0-1.138-1.678,1.865,1.865,0,0,0-2.006.393l-7.365,7.272a1.8,1.8,0,0,0,0,2.571l4.222,4.169-5.143,5.078a1.8,1.8,0,0,0,0,2.571,1.857,1.857,0,0,0,2.6,0l6.445-6.363a1.8,1.8,0,0,0,0-2.571l-4.222-4.169,2.92-2.883v1.065a1.83,1.83,0,0,0,1.841,1.818h7.427a1.818,1.818,0,1,0,0-3.636Z" transform="translate(-196 -108.015)"/><ellipse class="b" cx="2.762" cy="2.762" rx="2.762" ry="2.762" transform="translate(11.969 0)"/></g></g></svg>