<svg id="Shape_BG" data-name="Shape BG" xmlns="http://www.w3.org/2000/svg" xmlns:xlink="http://www.w3.org/1999/xlink" width="680.749" height="728.007" viewBox="0 0 680.749 728.007">
  <defs>
    <linearGradient id="linear-gradient" x1="-0.25" y1="-0.201" x2="1.25" y2="1.201" gradientUnits="objectBoundingBox">
      <stop offset="0" stop-color="#fae2f1"/>
      <stop offset="0.342" stop-color="#f5f0f8"/>
      <stop offset="0.57" stop-color="#effdff"/>
      <stop offset="0.995" stop-color="#f8f0f7"/>
      <stop offset="1" stop-color="#f8f0f7"/>
    </linearGradient>
  </defs>
  <path id="Ellipse_1905_copy" data-name="Ellipse 1905 copy" d="M-112.861,2067.756c53.639,8.059,106.456,25.331,151.581,46.459,45.355,21.391,83.188,46.8,112.614,76.957,29.238,29.684,52.7,59.364,67.576,94.205a224.888,224.888,0,0,1,15.756,56.579,273.82,273.82,0,0,1,2.7,32.125q.056,2.1.084,4.221.014,1.061.021,2.129t.007,2.142q0,4.293-.117,8.685-.232,8.784-.928,17.973c-.438,6.185-.839,28.545-8.395,72.559-19.345,116.957-76.377,118.793-122.864,147.6-38.4,23.656-30.925,82.462-101.026,125.763-27.828,16.987-53.1,26.607-75.992,31.523a192.471,192.471,0,0,1-32.652,4.159q-1.938.079-3.851.119t-3.8.042q-3.778,0-7.46-.132c-4.91-.18-9.7-.536-14.362-1.029-37.331-3.95-67.147-16.7-92.921-19.2-56.631-5.182-54.086-6.675-78.639-24.209-44.12-31.053-50.525-38.8-73.726-77.476-19.032-31.89-25.5-63.074-40.361-105.756a455.981,455.981,0,0,1-17.5-67.974c-2.08-11.891-3.684-24.033-4.731-36.38q-.785-9.259-1.144-18.665-.177-4.7-.241-9.435-.032-2.366-.035-4.74t.024-4.755q-.015-2.41,0-4.81t.054-4.793q.082-4.785.274-9.531.383-9.5,1.192-18.848,1.61-18.7,4.809-36.849a474.282,474.282,0,0,1,18.143-70.488c15.566-45.4,37.057-88.1,63.973-122.852,27-34.785,59.559-61.537,99.739-76.133q30.083-11.1,65.837-13.354,8.922-.573,18.174-.6,2.312-.007,4.645.021t4.684.088q4.7.122,9.484.381a377.9,377.9,0,0,1,39.385,4.274Z" transform="translate(443.276 -2062.991)" fill="url(#linear-gradient)"/>
</svg>
