<svg id="Shape_BG" data-name="Shape BG" xmlns="http://www.w3.org/2000/svg" xmlns:xlink="http://www.w3.org/1999/xlink" width="682.84" height="730.244" viewBox="0 0 682.84 730.244">
  <defs>
    <linearGradient id="linear-gradient" x1="1.25" y1="-0.201" x2="-0.25" y2="1.201" gradientUnits="objectBoundingBox">
      <stop offset="0" stop-color="#fae2f1"/>
      <stop offset="0.342" stop-color="#f5f0f8"/>
      <stop offset="0.57" stop-color="#effdff"/>
      <stop offset="0.995" stop-color="#f8f0f7"/>
      <stop offset="1" stop-color="#f8f0f7"/>
    </linearGradient>
  </defs>
  <path id="Ellipse_1905_copy" data-name="Ellipse 1905 copy" d="M-91.866,2067.771c-53.8,8.083-106.783,25.409-152.046,46.6-45.494,21.457-83.444,46.943-112.96,77.194-29.328,29.775-52.864,59.546-67.784,94.494a225.578,225.578,0,0,0-15.8,56.753,274.662,274.662,0,0,0-2.7,32.223q-.056,2.1-.085,4.234-.014,1.065-.021,2.135t-.007,2.148q0,4.306.118,8.711.233,8.811.931,18.029c.439,6.2.841,28.633,8.42,72.782,19.4,117.316,76.612,119.158,123.242,148.056,38.517,23.729,31.02,82.715,101.337,126.149,27.914,17.039,53.265,26.688,76.226,31.62a193.078,193.078,0,0,0,32.752,4.172q1.944.079,3.863.119t3.814.042q3.789,0,7.483-.133c4.925-.18,9.725-.537,14.406-1.032,37.446-3.963,67.353-16.748,93.206-19.255,56.805-5.2,54.252-6.7,78.881-24.283,44.255-31.149,50.68-38.917,73.953-77.714,19.091-31.988,25.576-63.268,40.485-106.081a457.381,457.381,0,0,0,17.554-68.183c2.086-11.927,3.7-24.107,4.746-36.492q.788-9.287,1.148-18.722.178-4.716.242-9.464.032-2.374.035-4.755t-.024-4.77q.015-2.417,0-4.825t-.054-4.808q-.082-4.8-.275-9.561-.384-9.525-1.2-18.906-1.615-18.762-4.824-36.963a475.737,475.737,0,0,0-18.2-70.7c-15.614-45.536-37.17-88.368-64.169-123.23-27.083-34.892-59.742-61.726-100.045-76.366q-30.175-11.136-66.039-13.395-8.95-.575-18.23-.6-2.32-.007-4.659.021t-4.7.088q-4.718.123-9.513.383a378.963,378.963,0,0,0-39.506,4.287Z" transform="translate(443.276 -2062.991)" fill="url(#linear-gradient)"/>
</svg>
