<svg xmlns="http://www.w3.org/2000/svg" width="32.813" height="28.752" viewBox="0 0 32.813 28.752"><defs><style>.a{fill:#6269ff;}.b{fill:#ff4b5c;}.c{fill:#fff;}</style></defs><g transform="translate(0)"><path class="a" d="M125.934,132.337v-9.359a1.915,1.915,0,0,0-1.915-1.915h-6.8a1.915,1.915,0,0,0-1.915,1.915v9.359h-3.069a.886.886,0,0,0-.628,1.509l7.541,7.6a2.072,2.072,0,0,0,2.941,0l7.541-7.6a.886.886,0,0,0-.629-1.509Zm0,0" transform="translate(-104.214 -113.304)"/><path class="b" d="M386.385,121.577V117.3a.876.876,0,0,0-.876-.876H382.4a.876.876,0,0,0-.876.876v4.28h-1.4a.4.4,0,0,0-.287.69l3.448,3.474a.947.947,0,0,0,1.345,0l3.448-3.474a.4.4,0,0,0-.287-.69Zm0,0" transform="translate(-355.381 -108.961)"/><path class="b" d="M1.81,121.577V117.3a.876.876,0,0,1,.876-.876H5.795a.876.876,0,0,1,.876.876v4.28h1.4a.4.4,0,0,1,.287.69l-3.448,3.474a.947.947,0,0,1-1.345,0L.12,122.267a.4.4,0,0,1,.287-.69Zm0,0" transform="translate(-0.001 -108.961)"/><path class="c" d="M148.142,7.929A7.929,7.929,0,1,1,140.214,0,7.928,7.928,0,0,1,148.142,7.929Zm0,0" transform="translate(-123.807)"/><path class="c" d="M171.532,33.037a6.209,6.209,0,1,1-6.209-6.209A6.209,6.209,0,0,1,171.532,33.037Zm0,0" transform="translate(-148.916 -25.109)"/><path class="a" d="M219.654,51.509l-1.329-.365a.522.522,0,0,1,.138-1.026h1.982a.865.865,0,0,0,0-1.73h-.82v-.262a.865.865,0,1,0-1.73,0v.334a2.253,2.253,0,0,0-.028,4.352l1.329.365a.522.522,0,0,1-.138,1.026h-1.982a.865.865,0,1,0,0,1.73h.82V56.2a.865.865,0,1,0,1.73,0v-.334a2.253,2.253,0,0,0,.028-4.352Zm0,0" transform="translate(-202.355 -44.233)"/></g></svg>